<?xml version="1.0" encoding="utf-8"?>
<!-- Generator: Adobe Illustrator 16.0.0, SVG Export Plug-In . SVG Version: 6.00 Build 0)  -->
<!DOCTYPE svg PUBLIC "-//W3C//DTD SVG 1.1//EN" "http://www.w3.org/Graphics/SVG/1.1/DTD/svg11.dtd">
<svg version="1.1" id="Layer_1" xmlns="http://www.w3.org/2000/svg" xmlns:xlink="http://www.w3.org/1999/xlink" x="0px" y="0px"
	 width="2000px" height="2000px" viewBox="0 0 2000 2000" enable-background="new 0 0 2000 2000" xml:space="preserve">
<g id="Layer_1_1_" display="none">
	<g display="inline">
		<rect x="62.5" y="62.5" fill="none" stroke="#B3B3B3" stroke-width="0.1" stroke-miterlimit="10" width="1875" height="1875"/>
		<line fill="none" stroke="#B3B3B3" stroke-width="0.1" stroke-miterlimit="10" x1="1000" y1="62.5" x2="1000" y2="1937.5"/>
		<line fill="none" stroke="#B3B3B3" stroke-width="0.1" stroke-miterlimit="10" x1="1937.5" y1="1000" x2="62.5" y2="1000"/>
		<line fill="none" stroke="#B3B3B3" stroke-width="0.1" stroke-miterlimit="10" x1="62.5" y1="62.5" x2="1937.5" y2="1937.5"/>
		<rect x="312.5" y="312.5" fill="none" stroke="#B3B3B3" stroke-width="0.1" stroke-miterlimit="10" width="1375" height="1375"/>
		<line fill="none" stroke="#B3B3B3" stroke-width="0.1" stroke-miterlimit="10" x1="1937.5" y1="62.5" x2="62.5" y2="1937.5"/>
		<line fill="none" stroke="#B3B3B3" stroke-width="0.1" stroke-miterlimit="10" x1="62.5" y1="1000" x2="1000" y2="62.5"/>
		<line fill="none" stroke="#B3B3B3" stroke-width="0.1" stroke-miterlimit="10" x1="1000" y1="62.5" x2="1937.5" y2="1000"/>
		<line fill="none" stroke="#B3B3B3" stroke-width="0.1" stroke-miterlimit="10" x1="1937.5" y1="1000" x2="1000" y2="1937.5"/>
		<line fill="none" stroke="#B3B3B3" stroke-width="0.1" stroke-miterlimit="10" x1="1000" y1="1937.5" x2="62.5" y2="1000"/>
		<circle fill="none" stroke="#B3B3B3" stroke-width="0.1" stroke-miterlimit="10" cx="1000" cy="1000" r="656.25"/>
	</g>
</g>
<g id="Layer_2">
	<path fill="#328CC1" d="M437.5,812.5c-206.25,0-375-168.75-375-375s168.75-375,375-375s375,168.75,375,375
		S643.75,812.5,437.5,812.5z M437.5,125C265.625,125,125,265.625,125,437.5S265.625,750,437.5,750S750,609.375,750,437.5
		S609.375,125,437.5,125z"/>
	<g>
		<path fill="#328CC1" d="M312.5,281.25c0-18.75,12.5-31.25,31.25-31.25h62.5v-62.5h-62.5c-53.125,0-93.75,40.625-93.75,93.75v100
			c0,6.25,0,25-12.5,25s-50,0-50,0v62.5c0,0,37.5,0,50,0s12.5,18.75,12.5,25v100c0,53.125,40.625,93.75,93.75,93.75h62.5V625h-62.5
			c-18.75,0-31.25-12.5-31.25-31.25v-100c0-21.875-6.25-40.625-18.75-56.25c12.5-15.625,18.75-37.5,18.75-56.25V281.25z"/>
	</g>
	<g>
		<path fill="#328CC1" d="M562.5,281.25c0-18.75-12.5-31.25-31.25-31.25h-62.5v-62.5h62.5c53.125,0,93.75,40.625,93.75,93.75v100
			c0,9.375,0,25,12.5,25s50,0,50,0v62.5c0,0-37.5,0-50,0s-12.5,18.75-12.5,25v100c0,53.125-40.625,93.75-93.75,93.75h-62.5V625h62.5
			c18.75,0,31.25-12.5,31.25-31.25v-100c0-21.875,6.25-40.625,18.75-56.25c-12.5-15.625-18.75-37.5-18.75-56.25V281.25z"/>
	</g>
	<g>
		<polygon fill="#328CC1" points="1443.75,1768.75 1306.25,1562.5 1443.75,1356.25 1493.75,1393.75 1381.25,1562.5 1493.75,1731.25 
					"/>
	</g>
	<g>
		<polygon fill="#328CC1" points="1681.25,1768.75 1631.25,1731.25 1743.75,1562.5 1631.25,1393.75 1681.25,1356.25 1818.75,1562.5 
					"/>
	</g>
	<g>
		
			<rect x="1531.151" y="1371.839" transform="matrix(-0.9864 -0.1641 0.1641 -0.9864 2847.2202 3360.1218)" fill="#328CC1" width="62.498" height="381.234"/>
	</g>
	<g>
		<path fill="#328CC1" d="M1000,1281.25c-156.25,0-281.25-125-281.25-281.25s125-281.25,281.25-281.25s281.25,125,281.25,281.25
			S1156.25,1281.25,1000,1281.25z M1000,781.25c-121.875,0-218.75,96.875-218.75,218.75s96.875,218.75,218.75,218.75
			s218.75-96.875,218.75-218.75S1121.875,781.25,1000,781.25z"/>
	</g>
	<path fill="#328CC1" d="M1125,1562.5c0-15.625,0-31.25,3.125-46.875l0,0l-18.75,6.25l-40.625,196.875h-137.5l-40.625-200
		l-18.75-6.25c-53.125-12.5-100-34.375-146.875-62.5l-15.625-9.375l-168.75,112.5l-96.875-96.875l112.5-168.75l-9.375-15.625
		C518.75,1225,500,1178.125,484.375,1125l-6.25-18.75l-196.875-37.5v-137.5l200-40.625l6.25-18.75l0,0
		C468.75,875,453.125,875,437.5,875c-40.625,0-78.125-6.25-112.5-15.625L218.75,881.25v237.5l209.375,40.625
		c12.5,43.75,31.25,87.5,53.125,128.125L362.5,1468.75l168.75,168.75l178.125-118.75c40.625,21.875,84.375,40.625,128.125,53.125
		l40.625,209.375h237.5L1137.5,1675C1131.25,1640.625,1125,1603.125,1125,1562.5z"/>
	<path fill="#328CC1" d="M871.875,484.375L871.875,484.375l18.75-6.25L931.25,281.25h137.5l40.625,200l18.75,6.25
		c53.125,12.5,100,34.375,146.875,62.5l15.625,9.375l168.75-112.5l96.875,96.875l-112.5,168.75l9.375,15.625
		C1481.25,775,1500,821.875,1515.625,875l6.25,18.75l200,40.625v137.5l-200,40.625l-6.25,18.75l0,0
		c15.625-6.25,31.25-6.25,46.875-6.25c40.625,0,78.125,6.25,112.5,15.625l106.25-21.875v-237.5l-209.375-40.625
		c-12.5-43.75-31.25-87.5-53.125-128.125l118.75-178.125L1468.75,362.5l-178.125,118.75
		c-40.625-21.875-84.375-40.625-128.125-53.125l-43.75-209.375h-237.5L859.375,325C868.75,362.5,875,400,875,437.5
		C875,453.125,875,468.75,871.875,484.375z"/>
	<path fill="#328CC1" d="M1562.5,1937.5c-206.25,0-375-168.75-375-375s168.75-375,375-375s375,168.75,375,375
		S1768.75,1937.5,1562.5,1937.5z M1562.5,1250c-171.875,0-312.5,140.625-312.5,312.5s140.625,312.5,312.5,312.5
		s312.5-140.625,312.5-312.5S1734.375,1250,1562.5,1250z"/>
</g>
</svg>
